<svg xmlns="http://www.w3.org/2000/svg" width="1728" height="1728" viewBox="0 0 1728 1728"><path d="M1353.965 1526.38l20.39-47.98H268.8V372.846l-47.98 20.39L297.6 211.2l76.78 182.035-47.98-20.39V1420.8h1047.956l-20.39-47.98L1536 1449.6l-182.035 76.78zM422.4 1344h192v-230.4h-192V1344zm480 0V902.4h-192V1344h192zm134.4 0h192V710.4h-192V1344zM415.93 835.93l12.94 56.14c208.646-48.152 522.72-187.68 739.047-423.743l71.923 53.55L1267.2 288l-216.212 93.235 70.52 52.53c-207.185 223.7-506.34 356.2-705.578 402.165z"/></svg>